<?xml version="1.0" encoding="UTF-8" standalone="no"?>
<!-- Generator: Adobe Illustrator 15.0.0, SVG Export Plug-In . SVG Version: 6.00 Build 0)  -->

<svg
   xmlns:dc="http://purl.org/dc/elements/1.1/"
   xmlns:cc="http://creativecommons.org/ns#"
   xmlns:rdf="http://www.w3.org/1999/02/22-rdf-syntax-ns#"
   xmlns:svg="http://www.w3.org/2000/svg"
   xmlns="http://www.w3.org/2000/svg"
   xmlns:sodipodi="http://sodipodi.sourceforge.net/DTD/sodipodi-0.dtd"
   xmlns:inkscape="http://www.inkscape.org/namespaces/inkscape"
   version="1.1"
   id="Layer_1"
   x="0px"
   y="0px"
   width="195"
   height="35.5"
   viewBox="0 0 195 35.5"
   enable-background="new 0 0 140 35"
   xml:space="preserve"
   sodipodi:docname="logo_sticky(viejo).svg"
   inkscape:version="0.92.4 (5da689c313, 2019-01-14)"><metadata
   id="metadata4481"><rdf:RDF><cc:Work
       rdf:about=""><dc:format>image/svg+xml</dc:format><dc:type
         rdf:resource="http://purl.org/dc/dcmitype/StillImage" /><dc:title></dc:title></cc:Work></rdf:RDF></metadata><defs
   id="defs4479">
	
	
	
	
	
</defs><sodipodi:namedview
   pagecolor="#ffffff"
   bordercolor="#666666"
   borderopacity="1"
   objecttolerance="10"
   gridtolerance="10"
   guidetolerance="10"
   inkscape:pageopacity="0"
   inkscape:pageshadow="2"
   inkscape:window-width="1366"
   inkscape:window-height="705"
   id="namedview4477"
   showgrid="false"
   inkscape:zoom="4.3299648"
   inkscape:cx="127.06404"
   inkscape:cy="5.2541075"
   inkscape:window-x="-8"
   inkscape:window-y="-8"
   inkscape:window-maximized="1"
   inkscape:current-layer="Layer_1" />





<g
   id="g4497"
   transform="translate(-40.185084,64.703755)"><path
     d="m 42.854,8.435 h 2.534 l 5.814,15.523 h 0.054 l 6,-15.523 h 2.375 l -7.389,18.884 h -2.16 z"
     id="path4464"
     inkscape:connector-curvature="0"
     style="fill:#444444" /><path
     d="m 66.646,8.435 h 2.107 l 8.028,18.884 h -2.614 l -1.921,-4.642 h -9.44 l -1.948,4.642 h -2.534 z m 1.013,2.88 h -0.053 l -3.921,9.282 h 7.708 z"
     id="path4466"
     inkscape:connector-curvature="0"
     style="fill:#444444" /><path
     d="m 79.288,8.435 h 2.827 l 10.936,15.683 h 0.054 V 8.435 h 2.24 V 27.319 H 92.517 L 81.582,11.636 H 81.528 V 27.32 h -2.24 z"
     id="path4468"
     inkscape:connector-curvature="0"
     style="fill:#444444" /><path
     d="m 100.038,8.435 h 2.827 l 10.937,15.683 h 0.053 V 8.435 h 2.241 v 18.884 h -2.828 L 102.333,11.635 h -0.055 v 15.684 h -2.24 z"
     id="path4470"
     inkscape:connector-curvature="0"
     style="fill:#444444" /><path
     d="m 129.564,27.799 c -1.439,0 -2.76,-0.248 -3.96,-0.746 -1.201,-0.498 -2.241,-1.188 -3.12,-2.067 -0.881,-0.88 -1.566,-1.929 -2.055,-3.147 -0.489,-1.218 -0.733,-2.538 -0.733,-3.961 0,-1.422 0.244,-2.742 0.733,-3.961 0.488,-1.217 1.174,-2.267 2.055,-3.147 0.879,-0.88 1.919,-1.569 3.12,-2.067 1.2,-0.498 2.521,-0.747 3.96,-0.747 1.44,0 2.762,0.249 3.961,0.747 1.2,0.498 2.24,1.187 3.121,2.067 0.88,0.88 1.564,1.93 2.054,3.147 0.489,1.219 0.733,2.539 0.733,3.961 0,1.423 -0.244,2.743 -0.733,3.961 -0.489,1.219 -1.174,2.268 -2.054,3.147 -0.881,0.88 -1.921,1.569 -3.121,2.067 -1.199,0.498 -2.52,0.746 -3.961,0.746 z m 0,-2.08 c 1.104,0 2.112,-0.204 3.027,-0.613 0.916,-0.409 1.702,-0.969 2.36,-1.681 0.658,-0.711 1.169,-1.543 1.534,-2.494 0.364,-0.951 0.547,-1.969 0.547,-3.054 0,-1.084 -0.183,-2.103 -0.547,-3.054 -0.365,-0.951 -0.876,-1.782 -1.534,-2.493 -0.658,-0.711 -1.444,-1.271 -2.36,-1.681 -0.915,-0.409 -1.924,-0.614 -3.027,-0.614 -1.103,0 -2.111,0.205 -3.027,0.614 -0.915,0.409 -1.702,0.969 -2.36,1.681 -0.658,0.712 -1.169,1.542 -1.533,2.493 -0.365,0.952 -0.547,1.97 -0.547,3.054 0,1.085 0.182,2.103 0.547,3.054 0.364,0.951 0.875,1.783 1.533,2.494 0.658,0.712 1.445,1.271 2.36,1.681 0.916,0.409 1.925,0.613 3.027,0.613 z"
     id="path4472"
     inkscape:connector-curvature="0"
     style="fill:#444444" /></g>
<g
   id="g4501"
   style="fill:#1a1a1a"
   transform="matrix(1,0,0,1.1155438,-132.71099,11.536505)"><text
     id="text4490"
     y="15.085721"
     x="174.49326"
     style="font-style:normal;font-variant:normal;font-weight:normal;font-stretch:normal;font-size:40px;line-height:1.25;font-family:'Agency FB';-inkscape-font-specification:'Agency FB';letter-spacing:-2.79999995px;word-spacing:0px;fill:#1a1a1a;fill-opacity:1;stroke:none"
     xml:space="preserve"><tspan
       dx="0"
       style="font-style:normal;font-variant:normal;font-weight:bold;font-stretch:normal;font-size:30.29749107px;font-family:'Microsoft JhengHei UI';-inkscape-font-specification:'Microsoft JhengHei UI Bold';letter-spacing:-2.73000002px;fill:#1a1a1a"
       y="15.085721"
       x="174.49326"
       id="tspan4488"
       sodipodi:role="line">consumidor</tspan></text>
</g><g
   id="g4564"
   transform="matrix(0.81511275,0,0,0.81334576,-22.145219,-32.831363)"
   style="fill:#0000ff"><path
     style="fill:#0000ff;stroke-width:1.23109615"
     inkscape:connector-curvature="0"
     id="path4454-1"
     d="m 47.640686,40.793172 c 2.348303,0 4.590593,0.461059 6.636883,1.294653 -9.584281,1.550386 -16.904083,9.844521 -16.904083,19.84027 0,4.983121 1.819473,9.540838 4.829738,13.055948 -2.157233,-0.69835 -4.130794,-1.80612 -5.830694,-3.224951 l -7.966972,2.018822 2.831523,-9.176909 c -0.75195,-1.9512 -1.166139,-4.072069 -1.166139,-6.28515 0.0012,-9.676081 7.868356,-17.522683 17.569744,-17.522683 z" /><path
     style="fill:#0000ff;stroke-width:1.23109615"
     inkscape:connector-curvature="0"
     id="path4462-1"
     d="m 75.208899,61.934242 c 0,-9.676081 -7.867123,-17.522682 -17.569743,-17.522682 -9.700155,0 -17.567278,7.846601 -17.567278,17.522682 0,9.678541 7.867123,17.523913 17.567278,17.523913 1.66785,0 3.280228,-0.232374 4.806316,-0.663925 l 9.181187,5.031071 -1.381862,-9.687147 c 3.073133,-3.15487 4.964102,-7.458082 4.964102,-12.203912 z M 57.639156,72.740225 c -5.982317,0 -10.833011,-4.84173 -10.833011,-10.809671 0,-5.965482 4.850694,-10.804753 10.833011,-10.804753 5.982317,0 10.834244,4.839271 10.834244,10.804753 -0.0012,5.9704 -4.851927,10.809671 -10.834244,10.809671 z" /><g
     transform="translate(-53.580112,4.6189753)"
     id="g4556"
     style="fill:#0000ff"><path
       sodipodi:type="star"
       style="fill:#0000ff"
       id="path4530"
       sodipodi:sides="5"
       sodipodi:cx="95.005066"
       sodipodi:cy="62.498318"
       sodipodi:r1="3.4547491"
       sodipodi:r2="1.7273746"
       sodipodi:arg1="0.95054684"
       sodipodi:arg2="1.5788654"
       inkscape:flatsided="false"
       inkscape:rounded="0"
       inkscape:randomized="0"
       d="m 97.013098,65.309563 -2.02197,-1.083927 -2.039199,1.051156 0.406052,-2.25796 -1.629856,-1.614568 2.272925,-0.311569 1.031892,-2.049014 0.998692,2.065399 2.267601,0.348208 -1.655699,1.588056 z"
       inkscape:transform-center-x="-0.0064949188"
       inkscape:transform-center-y="-0.2505535"
       transform="matrix(0.75397741,0,0,0.77885114,32.407736,8.130093)" /><path
       sodipodi:type="star"
       style="fill:#0000ff"
       id="path4530-0"
       sodipodi:sides="5"
       sodipodi:cx="95.005066"
       sodipodi:cy="62.498318"
       sodipodi:r1="3.4547491"
       sodipodi:r2="1.7273746"
       sodipodi:arg1="0.95054684"
       sodipodi:arg2="1.5788654"
       inkscape:flatsided="false"
       inkscape:rounded="0"
       inkscape:randomized="0"
       d="m 97.013098,65.309563 -2.02197,-1.083927 -2.039199,1.051156 0.406052,-2.25796 -1.629856,-1.614568 2.272925,-0.311569 1.031892,-2.049014 0.998692,2.065399 2.267601,0.348208 -1.655699,1.588056 z"
       inkscape:transform-center-x="-0.0064949188"
       inkscape:transform-center-y="-0.2505535"
       transform="matrix(0.75397741,0,0,0.77885114,46.071828,8.2828506)" /><path
       sodipodi:type="star"
       style="fill:#0000ff"
       id="path4530-6"
       sodipodi:sides="5"
       sodipodi:cx="95.005066"
       sodipodi:cy="62.498318"
       sodipodi:r1="3.4547491"
       sodipodi:r2="1.7273746"
       sodipodi:arg1="0.95054684"
       sodipodi:arg2="1.5788654"
       inkscape:flatsided="false"
       inkscape:rounded="0"
       inkscape:randomized="0"
       d="m 97.013098,65.309563 -2.02197,-1.083927 -2.039199,1.051156 0.406052,-2.25796 -1.629856,-1.614568 2.272925,-0.311569 1.031892,-2.049014 0.998692,2.065399 2.267601,0.348208 -1.655699,1.588056 z"
       inkscape:transform-center-x="-0.0064949188"
       inkscape:transform-center-y="-0.2505535"
       transform="matrix(0.75397741,0,0,0.77885114,39.362204,8.1713906)" /></g></g></svg>